<?xml version="1.0" encoding="UTF-8"?>
<!-- Generator: Adobe Illustrator 27.9.4, SVG Export Plug-In . SVG Version: 9.03 Build 54784)  -->
<svg xmlns="http://www.w3.org/2000/svg" xmlns:xlink="http://www.w3.org/1999/xlink" version="1.1" id="Layer_1" x="0px" y="0px" viewBox="0 0 1063.68 1007.18" style="enable-background:new 0 0 1063.68 1007.18;" xml:space="preserve">
<style type="text/css">
	.st0{fill:#29B5BD;}
	.st1{fill:#C2A16B;}
	.st2{fill:#58595B;}
</style>
<g>
	<g>
		<line class="st0" x1="519.9" y1="701.9" x2="513.96" y2="698.21"></line>
		<path class="st1" d="M432.55,146.69c3.84-4.59,8.12-8.65,13.36-11.62c8.68-4.92,17.98-7.74,27.93-8.35    c3.28-0.2,6.58-0.36,9.82,0.41c0.45,0.11,0.83,0.48,1.24,0.73c-0.41,0.18-0.81,0.42-1.24,0.54c-7.74,2.2-15.2,5-21.85,9.68    c-6.69,4.71-12.62,10.19-17.3,16.94c-7.19,10.37-10.01,22.11-10.55,34.51c-0.26,5.88,1.07,11.59,2.3,17.29    c0.27,1.25,0.74,2.46,1.22,4.03c0.42-2.78,0.78-5.13,1.14-7.49c1.17-7.58,3.19-14.92,6.38-21.92c3.42-7.52,8.29-13.99,14.04-19.91    c5.97-6.14,12.99-10.49,20.97-13.42c1.09-0.4,2.2-0.78,3.33-1.06c0.39-0.1,0.87,0.14,1.3,0.22c-0.19,0.35-0.32,0.76-0.59,1.04    c-2.15,2.35-4.36,4.64-6.48,7.01c-4.54,5.06-8.94,10.27-11.95,16.41c-2.04,4.18-3.71,8.56-5.25,12.95    c-2.68,7.65-4.18,15.56-4.19,23.7c-0.01,3.34,0.06,6.69,0.35,10.01c0.47,5.39,1.46,10.71,3.24,15.84    c1.31,3.81,2.64,7.61,3.96,11.41c0.11,0.3,0.24,0.58,0.36,0.88c0.11-0.02,0.22-0.04,0.33-0.07c0-1.11-0.01-2.22,0-3.32    c0.05-7.26-0.4-14.53,0.56-21.77c0.99-7.5,2.56-14.83,5.49-21.83c3.57-8.5,8.59-16.06,14.75-22.88c1.46-1.61,2.97-3.18,4.48-4.73    c0.23-0.23,0.61-0.3,0.93-0.44c0.05,0.3,0.18,0.61,0.12,0.9c-0.16,0.88-0.33,1.78-0.61,2.63c-0.95,2.87-1.96,5.72-2.92,8.58    c-4.36,13.1-5.65,26.49-3.57,40.16c2.05,13.5,6.97,25.84,15.08,36.87c0.63,0.86,1.6,1.45,2.36,2.23c0.35,0.36,0.62,0.82,0.85,1.28    c0.36,0.69,0.65,1.42,0.98,2.13c0.1-0.04,0.2-0.08,0.3-0.12c-0.05-0.52-0.05-1.05-0.16-1.56c-0.49-2.28-1.03-4.55-1.52-6.83    c-1.39-6.49-2.35-13.05-2.71-19.67c-0.34-6.21,0.05-12.41,0.99-18.56c1.17-7.73,3.39-15.14,7.97-21.59    c2.36-3.32,5.14-6.33,7.75-9.47c0.24-0.29,0.62-0.47,0.94-0.7c0.15,0.38,0.39,0.76,0.44,1.15c0.46,3.9,0.93,7.79,1.31,11.69    c0.6,6.12,1.13,12.25,1.73,18.36c0.67,6.86,1.41,13.71,2.07,20.57c0.6,6.33,1.11,12.67,1.71,19c0.78,8.18,1.64,16.35,2.41,24.52    c0.68,7.17,1.25,14.36,1.93,21.53c1.05,11.14,2.15,22.27,3.25,33.39c0.28,2.77,0.67,5.53,1,8.3c0.34-0.91,0.46-1.8,0.52-2.69    c0.27-3.54,0.46-7.09,0.79-10.62c0.53-5.59,1.16-11.17,1.71-16.77c0.59-6.01,1.12-12.03,1.7-18.05    c0.71-7.49,1.45-14.98,2.16-22.47c0.56-5.91,1.09-11.82,1.66-17.73c0.71-7.44,1.46-14.88,2.16-22.31    c0.58-6.12,1.11-12.25,1.7-18.37c0.57-5.91,1.19-11.81,1.77-17.72c0.32-3.27,0.6-6.55,0.95-9.81c0.16-1.46,0.69-1.63,1.83-0.69    c0.16,0.13,0.31,0.29,0.46,0.44c5.41,5.5,10.14,11.45,12.39,18.99c0.98,3.29,1.76,6.66,2.42,10.04    c1.64,8.39,1.95,16.87,0.67,25.32c-1.04,6.86-2.43,13.66-3.67,20.49c-0.12,0.65-0.22,1.3-0.33,1.95c0.11,0.05,0.23,0.1,0.34,0.15    c2.15-2.8,4.4-5.53,6.42-8.42c3.45-4.92,6.14-10.26,8.27-15.89c5.41-14.36,6.92-29.09,4.49-44.26    c-1.16-7.26-3.42-14.21-5.56-21.21c-0.44-1.41-0.74-2.87-1.07-4.32c-0.04-0.2,0.14-0.45,0.22-0.67c0.19,0.07,0.4,0.11,0.56,0.21    c0.17,0.11,0.3,0.29,0.44,0.45c2.65,3.03,5.36,6.02,7.94,9.11c5.54,6.61,9.74,13.99,12.54,22.16c1.97,5.75,2.97,11.69,3.71,17.71    c0.92,7.44,1.11,14.9,0.6,22.38c-0.06,0.84-0.01,1.7-0.01,2.55c2.18-3.75,4.05-7.55,5.22-11.64c3.51-12.25,4.41-24.67,2.55-37.31    c-1.8-12.29-6.71-23.26-13.78-33.35c-3.79-5.4-8.2-10.26-12.77-15c-0.46-0.47-0.61-1.24-0.9-1.87c0.66,0.07,1.37-0.01,1.95,0.23    c7.76,3.1,15.14,6.82,21.54,12.37c6.06,5.25,10.97,11.38,14.59,18.48c4.45,8.72,6.97,18.08,8.27,27.76    c0.18,1.38,0.37,2.75,0.56,4.13c0.61-0.92,1-1.84,1.26-2.8c2.51-9.02,3.06-18.16,1.53-27.4c-0.97-5.82-2.42-11.55-5.09-16.84    c-5.28-10.49-12.77-19.06-22.75-25.39c-4.59-2.91-9.38-5.35-14.55-7.09c-2.31-0.78-4.55-1.75-6.81-2.67    c-0.3-0.12-0.49-0.48-0.74-0.73c0.32-0.14,0.63-0.29,0.96-0.41c0.14-0.05,0.32-0.01,0.47-0.01c8.38-0.36,16.6,0.81,24.75,2.64    c0.41,0.09,0.82,0.24,1.21,0.4c1.44,0.6,2.86,1.24,4.31,1.81c6.97,2.75,13.02,6.83,18.03,12.41c1.84,2.05,3.64,4.14,5.49,6.18    c0.29,0.32,0.75,0.47,1.13,0.7c0.12-0.46,0.43-0.97,0.34-1.39c-0.39-1.87-0.84-3.72-1.37-5.55c-1.02-3.52-2.1-7.01-4.13-10.12    c-4.25-6.52-9.48-12.01-16.18-16.14c-8.94-5.51-18.57-8.46-29.05-8.66c-6.53-0.12-13.05-0.02-19.36,2c-0.3,0.1-0.69-0.06-1.03-0.1    c0.08-0.34,0.13-0.69,0.25-1.01c0.07-0.18,0.26-0.33,0.41-0.48c3.07-3.35,6.62-6.12,10.62-8.26c8.21-4.4,17.04-5.6,26.21-4.81    c2.74,0.24,5.48,0.64,8.05,1.77c0.4,0.18,0.88,0.18,1.32,0.25c0.06-0.1,0.12-0.2,0.18-0.3c-0.37-0.41-0.71-0.86-1.12-1.23    c-1.51-1.33-2.99-2.71-4.58-3.94c-7.03-5.45-14.64-9.5-23.75-10.2c-6.93-0.53-13.6,0.42-19.79,3.51    c-6.63,3.31-12.1,8.16-16.82,13.86c-0.58,0.7-0.86,1.01-1.11,0.91l0,0c-0.11-0.07-0.29-0.35-0.52-0.78    c-0.05-0.11-0.1-0.23-0.16-0.36c-0.58-1.37-1.19-2.73-1.79-4.09c-4.15-10.27-11.75-32.05-11.75-32.05    c-2.67,7.55-12.15,35.94-12.15,35.94c-0.75,1.47-0.99,1.43-1.99,0.15c-4.99-6.36-11-11.53-18.51-14.64    c-10.37-4.3-20.66-3.29-30.73,1.15c-5.54,2.44-10.22,6.21-14.67,10.25c-0.53,0.48-1.03,0.98-1.68,1.59c0.38,0,0.53,0.03,0.67,0    c7.22-1.81,14.5-2.64,21.9-1.35c9.13,1.59,17.09,5.51,23.66,12.13c0.3,0.3,0.57,0.64,0.77,1.01c0.39,0.67,0.12,1.05-0.62,0.93    c-0.94-0.15-1.85-0.5-2.79-0.61c-3.52-0.42-7.04-0.91-10.58-1.13c-5.51-0.35-11.02-0.29-16.45,1.01    c-4.46,1.06-8.72,2.62-12.85,4.58c-8.36,3.98-15.31,9.54-20.6,17.24c-4.11,5.98-6.03,12.64-7.01,19.73    C429.47,150,431.1,148.42,432.55,146.69z M521.24,114.99c4.11-2.11,8.51-3.24,11.8-3.14c10.15,0.07,17.54,3.44,23.84,9.4    c0.48,0.46,0.69,1.2,1.03,1.81c-0.68-0.16-1.44-0.18-2.04-0.51c-3.22-1.74-6.41-3.62-10.01-4.42c-8.53-1.91-15.72,0.51-21.44,7.09    c-2.83,3.25-4.88,6.96-5.6,11.26c-1.35,8.09,2.02,18.14,10.38,22.71c3.47,1.9,6.98,3.53,11.02,3.79    c5.75,0.38,10.78-1.27,15.05-5.12c2.82-2.55,4.97-5.64,7.11-8.75c0.31-0.45,0.76-0.8,1.15-1.2c0.02,0.64,0.22,1.33,0.04,1.9    c-1.73,5.31-4.66,9.91-8.78,13.62c-5.74,5.16-12.43,8.4-20.32,8.09c-11.11-0.44-22.78-7.18-27.57-19.32    C501.1,137.52,508.33,121.62,521.24,114.99z"></path>
		<path class="st0" d="M746.91,433.44c-0.26,0.01-0.53,0.01-0.8,0.01c-14.27,0-28.53,0-42.8-0.02c-7.21-0.01-14.42-0.11-21.64-0.11    c-6.25,0-12.51,0.09-18.76,0.11c-8.54,0.03-17.08,0.04-25.62,0.02c-5.41-0.01-10.82-0.09-16.22-0.19    c-1.04-0.02-0.9,0.62-0.96,1.23c-0.66,6.75-1.28,13.51-2,20.25c-0.88,8.22-1.85,16.43-2.77,24.64    c-0.64,5.69-1.23,11.38-1.88,17.07c-0.46,3.95-1,7.88-1.51,11.82c-0.11,0.88-0.07,1.59,0.87,2.15    c7.27,4.37,14.52,8.76,21.74,13.21c6.4,3.95,12.74,8.01,19.11,12c8.09,5.07,16.19,10.11,24.28,15.18c1.96,1.23,3.9,2.5,5.95,3.83    c0.13-0.46,0.28-0.8,0.32-1.14c0.79-7.17,1.61-14.33,2.34-21.5c0.82-8.01,1.53-16.04,2.33-24.06c0.9-9.07,1.86-18.14,2.76-27.21    c0.67-6.75,1.27-13.51,1.91-20.26c0.17-1.75,0.31-1.85,2.06-1.85c7.16,0,14.32,0.01,21.48,0c2.64,0,2.76,0.18,2.47,2.83    c-0.6,5.43-1.16,10.86-1.7,16.29c-0.79,7.96-1.52,15.93-2.33,23.89c-0.77,7.59-1.65,15.17-2.41,22.76    c-0.73,7.22-1.32,14.46-2.06,21.68c-0.77,7.53-1.65,15.04-2.47,22.56c-0.09,0.82-0.54,1.57-1.25,2c-0.76,0.46-1.55,0.86-2.31,1.33    c-5.75,3.59-11.51,7.18-17.26,10.79c-8.08,5.07-16.16,10.14-24.24,15.22c-6.78,4.26-13.54,8.54-20.33,12.78    c-6.83,4.27-13.69,8.49-20.54,12.74c-4.73,2.93-9.46,5.86-14.19,8.78c-1.36,0.84-1.75,0.71-2.39-0.76    c-0.87-1.99-1.73-3.98-2.58-5.98c-2.26-5.32-4.48-10.65-6.76-15.96c-2-4.68-4.06-9.34-6.08-14.01c-3.21-7.45-6.44-14.89-9.6-22.36    c-4.77-11.28-9.51-22.58-14.21-33.88c-0.39-0.95-0.67-1.15-1.55-0.56c-2.12,1.41-4.28,2.76-6.45,4.1    c-5.18,3.21-10.38,6.38-15.56,9.6c-2.7,1.68-5.49,3.24-8.02,5.15c-2.16,1.64-3.85,1.16-5.88-0.14    c-10.01-6.39-20.08-12.69-30.11-19.04c-0.68-0.43-1.01-0.4-1.28,0.35c-0.52,1.39-1.02,2.79-1.59,4.15    c-3.7,8.73-7.39,17.47-11.14,26.19c-3.64,8.48-7.33,16.93-10.99,25.39c-1.96,4.52-3.9,9.06-5.88,13.57    c-0.37,0.84-0.31,1.3,0.58,1.75c1.13,0.58,2.16,1.34,3.23,2.02c11.08,6.99,22.15,13.98,33.23,20.95c4.62,2.91,9.27,5.77,13.9,8.66    c4.05,2.53,8.09,5.05,12.13,7.6c0.72,0.46,1.36,0.67,2.18,0.14c6.23-4.03,12.46-8.05,18.73-12.02    c7.03-4.45,14.11-8.84,21.17-13.25c1.16-0.73,1.36-0.66,1.88,0.53c2.73,6.22,5.46,12.43,8.18,18.64c0.43,0.97,0.84,1.95,1.24,2.93    c0.28,0.67,0.2,1.17-0.51,1.6c-3.49,2.1-6.96,4.25-10.44,6.38c-5.91,3.63-11.85,7.24-17.73,10.91    c-7.37,4.6-14.72,9.25-22.05,13.93c-0.99,0.63-1.74,0.74-2.74,0.12c-4.09-2.55-8.22-5.04-12.32-7.58    c-15.54-9.65-31.09-19.29-46.59-28.99c-4.49-2.81-8.87-5.8-13.26-8.76c-0.72-0.49-1.01-0.34-1.28,0.35    c-0.08,0.2-0.18,0.39-0.26,0.58c-2.94,6.99-5.88,13.98-8.82,20.97c-0.67,1.59-0.66,1.61,0.88,2.58c3.14,1.97,6.31,3.91,9.45,5.88    c8.48,5.33,16.94,10.7,25.43,16.02c1.1,0.69,2.21,1.38,3.32,2.08l0.55,0.34c5.54,3.46,11.1,6.9,16.66,10.35    c2.93,1.82,5.88,3.63,8.82,5.44c1.34,0.83,2.68,1.65,4.02,2.48c0.64,0.39,1.34,0.75,1.93,1.2l2.71,1.68l6.08,3.77    c2.3,1.43,5.22,1.42,7.52-0.01l78.09-48.61c1.2-0.73,2.39-1.46,3.59-2.2c8.79-5.44,17.54-10.94,26.31-16.4    c8.73-5.43,17.48-10.84,26.21-16.28c8.5-5.3,16.98-10.63,25.48-15.94c11.82-7.38,23.64-14.77,35.48-22.11    c0.84-0.52,1.16-1.19,1.26-2.05c0.37-3.16,0.72-6.32,1.08-9.48c0.81-7.22,1.63-14.43,2.41-21.65c0.59-5.48,1.14-10.96,1.69-16.45    c0.49-4.85,0.95-9.7,1.47-14.55c0.42-3.9,0.95-7.78,1.39-11.68c0.52-4.58,0.96-9.17,1.46-13.75c0.56-5.16,1.16-10.32,1.73-15.48    c0.69-6.21,1.36-12.43,2.06-18.64c0.99-8.8,2.02-17.59,3.01-26.39C749.18,433.38,749.13,433.36,746.91,433.44z M668.48,460.61    c-0.28,3.64-0.62,7.29-0.99,10.92c-0.49,4.8-1.02,9.59-1.53,14.38c-0.82,7.74-1.63,15.49-2.44,23.23    c-0.12,1.16-0.16,2.33-0.38,3.47c-0.34,1.82-0.59,1.94-2.14,1.02c-2.64-1.57-5.27-3.16-7.87-4.8c-4.39-2.77-8.74-5.61-13.15-8.35    c-1.14-0.71-1.49-1.38-1.27-2.81c0.53-3.45,0.72-6.95,1.08-10.43c0.68-6.64,1.4-13.28,2.09-19.92c0.26-2.48,0.51-4.96,0.7-7.44    c0.08-1.06,0.44-1.38,1.58-1.35c3.76,0.1,7.52,0.04,11.28,0.04v0.16c3.71,0,7.42,0.01,11.13,0    C668.24,458.71,668.6,458.97,668.48,460.61z M563.09,599.79c-2.82,1.97-5.64,3.96-8.54,5.81c-6.83,4.37-13.72,8.64-20.53,13.03    c-1.08,0.69-1.86,0.66-2.86,0.02c-4.16-2.64-8.35-5.25-12.53-7.85c-5.81-3.61-11.61-7.22-17.44-10.79    c-0.76-0.47-0.68-1.03-0.48-1.63c0.44-1.3,0.92-2.6,1.46-3.86c2.33-5.46,4.69-10.9,7.05-16.35c1.13-2.62,1.11-2.57,3.52-1.08    c5.41,3.34,10.85,6.62,16.28,9.94c0.95,0.58,1.91,1.15,2.8,1.81c0.62,0.47,1.07,0.4,1.69,0c5.9-3.84,11.8-7.7,17.75-11.45    c2.66-1.68,2.65-2.26,4.24,1.27c2.52,5.61,5.1,11.19,7.62,16.8c0.41,0.91,0.69,1.89,1.12,3.07    C563.89,598.92,563.57,599.46,563.09,599.79z"></path>
		<path class="st0" d="M459.1,573.38c-4.03-2.46-8.07-4.89-12.08-7.38c-13.29-8.25-26.54-16.56-39.86-24.76    c-1.49-0.92-2.13-1.98-2.3-3.65c-0.63-6.01-1.36-12.01-2.05-18.01c-0.35-3.05-0.75-6.1-1.05-9.16c-0.14-1.42,0.07-1.57,1.47-1.58    c1.27-0.01,2.55,0.01,3.82,0.01c6.31-0.02,12.62-0.04,18.94-0.05c1.55,0,1.76,0.16,1.87,1.51c0.24,2.85,0.57,5.7,0.64,8.56    c0.09,3.86,1.79,6.6,5.05,8.59c7.74,4.72,15.46,9.46,23.13,14.29c5.38,3.4,10.65,6.96,15.96,10.46c0.58,0.38,1.05,0.92,1.66-0.06    c4.05-6.59,8.15-13.16,12.22-19.74c0.85-1.37,0.8-1.37-0.5-2.18c-10.63-6.61-21.24-13.23-31.87-19.82    c-0.81-0.5-1.13-1.15-1.21-2.08c-0.62-7.66-1.28-15.32-1.9-22.98c-0.07-0.87-0.34-1.22-1.26-1.16c-1.8,0.1-3.6,0.13-5.4,0.13    c-7.85,0.03-15.7,0.08-23.55,0.05c-14.69-0.05-29.38-0.15-44.07-0.23c-0.48,0-0.95-0.01-1.43-0.02c-0.65-0.01-0.99,0.28-0.95,0.96    c0.04,0.79,0.03,1.59,0.11,2.38c1.05,11.19,2.1,22.37,3.17,33.56c1.03,10.76,2.11,21.52,3.13,32.29c0.09,0.95,0.46,1.53,1.25,2.03    c5.08,3.18,10.11,6.43,15.19,9.6c8.63,5.39,17.29,10.74,25.93,16.12c1.92,1.19,1.91,1.24,0.98,3.25    c-0.27,0.58-0.51,1.17-0.84,1.71c-3.48,5.7-6.97,11.39-10.48,17.07c-0.95,1.54-1,1.51-2.51,0.54    c-6.72-4.34-13.42-8.74-20.18-13.02c-10.75-6.8-21.55-13.54-32.34-20.28c-0.74-0.46-1.17-1.01-1.25-1.88    c-0.21-2.43-0.45-4.86-0.68-7.28c-0.57-5.86-1.13-11.71-1.72-17.57c-0.67-6.59-1.38-13.18-2.05-19.77    c-0.61-5.96-1.16-11.92-1.77-17.88c-0.66-6.43-1.37-12.86-2.02-19.29c-0.54-5.33-1.01-10.66-1.53-15.98    c-0.33-3.43-0.74-6.85-1.03-10.28c-0.14-1.68,0.06-1.81,1.76-1.81c16.44,0,32.89,0,49.33,0c0,0.01,0,0.02,0,0.03    c8.59,0,17.19-0.03,25.78,0.01c7.9,0.03,15.8,0.14,23.7,0.21c1.61,0.01,1.63-0.04,1.47-1.58c-0.21-1.95-0.38-3.9-0.59-5.85    c-0.59-5.53-1.22-11.06-1.77-16.6c-0.1-1.03-0.47-1.33-1.48-1.34c-8.91-0.05-17.82-0.17-26.73-0.2    c-4.18-0.02-8.36,0.14-12.54,0.15c-24.77,0.04-49.54,0.05-74.31,0.08c-4.3,0-8.59,0.02-12.89-0.02c-1.05-0.01-1.46,0.33-1.3,1.39    c0.15,0.94,0.23,1.89,0.34,2.84c0.67,5.84,1.34,11.69,2,17.53c0.6,5.32,1.2,10.64,1.78,15.96c0.72,6.69,1.4,13.39,2.13,20.08    c0.52,4.74,1.13,9.47,1.65,14.22c0.72,6.43,1.39,12.86,2.09,19.28c0.69,6.27,1.4,12.54,2.1,18.8c0.83,7.53,1.66,15.06,2.47,22.6    c0.56,5.27,1.18,10.54,1.58,15.82c0.12,1.65,0.71,2.81,1.92,3.78c0.5,0.4,0.97,0.83,1.5,1.17c4.6,2.94,9.18,5.89,13.81,8.78    c10.3,6.43,20.61,12.84,30.93,19.23c8.2,5.08,16.43,10.1,24.62,15.19c4.55,2.82,9.05,5.73,13.57,8.6    c1.36,0.87,1.44,0.86,2.32-0.54c1.58-2.52,3.14-5.04,4.72-7.55c5.43-8.67,10.9-17.33,16.29-26.03    c5.95-9.6,11.82-19.25,17.74-28.87C460.61,574.29,460.63,574.31,459.1,573.38z"></path>
		<path class="st1" d="M754.64,368.91c-3.77-1.93-7.47-4.03-11.27-5.89c-8.79-4.3-17.95-7.67-27.51-9.78    c-6.15-1.36-12.39-2.35-18.61-3.35c-6.03-0.96-12.13-1.28-18.23-1.25c-7.16,0.03-14.29,0.4-21.41,1.38    c-10.07,1.38-19.88,3.77-29.56,6.8c-10.97,3.43-21.33,8.28-31.4,13.77c-8.49,4.62-16.69,9.75-24.21,15.81    c-6.15,4.95-12.02,10.25-17.85,15.58c-7.28,6.65-14.54,13.35-20.7,21.1c-0.61,0.77-1.07,0.81-1.76,0.08    c-2.28-2.44-4.6-4.85-6.93-7.24c-2.45-2.5-4.91-4.98-7.42-7.43c-1.24-1.21-1.28-1.16-2.65-0.2c-2.57,1.79-5.1,3.63-7.71,5.34    c-4.65,3.06-9.36,6.03-14.04,9.05c-1.15,0.74-1.14,0.76-0.13,1.66c5.47,4.86,11,9.65,16.37,14.62    c6.38,5.9,12.62,11.96,18.92,17.95c1.27,1.21,2.5,2.45,3.76,3.66c0.43,0.41,0.82,0.78,1.43,0.07c2.02-2.38,4.07-4.74,6.2-7.03    c4.44-4.78,8.81-9.62,13.43-14.22c5.9-5.88,12.07-11.47,18.01-17.3c9.04-8.88,19.19-16.37,29.56-23.57    c5.22-3.62,10.75-6.8,16.15-10.15c2.03-1.25,4.1-2.44,6.17-3.63c1.21-0.69,1.43-0.55,1.4,0.87c-0.02,0.9-0.06,1.8-0.16,2.7    c-0.9,8.38-1.81,16.76-2.72,25.13c-0.27,2.56-0.26,2.56,2.33,2.52c0.37-0.01,0.74-0.01,1.11-0.01c8.64,0.06,17.29,0.16,25.93,0.18    c11.62,0.03,23.23,0.01,34.85,0.01v-0.2h62.7c0.37,0,0.74-0.02,1.11,0c0.64,0.03,0.95-0.22,1.02-0.9c0.19-1.95,0.43-3.9,0.65-5.84    c0.71-6.27,1.42-12.53,2.11-18.8c0.72-6.53,1.39-13.07,2.1-19.61C755.77,369.89,755.5,369.34,754.64,368.91z M728.95,376.75    c-0.4,5.55-0.87,11.1-1.31,16.64c-0.12,1.5-0.26,1.61-1.91,1.62c-11.56,0.02-23.12,0.03-34.69,0.04h-2.71V395h-36.91    c-1.87,0-1.97-0.13-1.75-2.02c0.65-5.58,1.29-11.16,1.94-16.74c0.05-0.42,0.17-0.83,0.19-1.26c0.04-0.89,0.5-1.28,1.38-1.42    c3.61-0.6,7.2-1.31,10.81-1.86c7.81-1.19,15.68-2.01,23.58-2.07c5.29-0.04,10.61,0.12,15.88,0.61c7.49,0.71,14.93,1.8,22.4,2.75    C729.15,373.4,729.2,373.41,728.95,376.75z"></path>
		<path class="st1" d="M490.13,421.8c1.26-0.68,2.42-1.53,3.62-2.31c8.53-5.55,17.06-11.1,25.58-16.66c2.92-1.9,5.82-3.84,8.89-5.88    c-0.49-0.41-0.73-0.62-0.98-0.81c-6.55-4.96-13.13-9.89-19.64-14.9c-1.01-0.77-1.73-0.73-2.68-0.09c-1.58,1.07-3.2,2.08-4.8,3.13    c-8.28,5.45-16.54,10.93-24.84,16.35c-3.82,2.49-7.69,4.89-11.56,7.31c-0.54,0.34-0.86,0.65-0.78,1.38    c0.56,5.11,1.06,10.23,1.61,15.34c1.13,10.54,2.28,21.08,3.42,31.61c0.61,5.64,1.25,11.27,1.84,16.91    c0.6,5.75,1.16,11.49,1.7,17.25c0.07,0.8,0.43,1.2,1.08,1.59c4.14,2.48,8.28,4.96,12.37,7.52c15.42,9.64,30.82,19.31,46.2,29    c0.88,0.56,1.43,0.47,2.24-0.07c4.03-2.65,8.08-5.26,12.17-7.83c3.95-2.48,7.95-4.88,11.91-7.34c7.48-4.63,14.96-9.27,22.42-13.93    c3.86-2.42,7.68-4.9,11.53-7.34c0.88-0.56,1.3-1.38,1.43-2.36c0.27-2.1,0.53-4.21,0.76-6.31c0.7-6.53,1.35-13.07,2.06-19.61    c0.67-6.22,1.4-12.43,2.06-18.65c1.01-9.54,1.97-19.09,3.02-28.62c0.11-1.01-0.01-1.74-0.83-2.35c-2.34-1.73-4.69-3.46-7-5.23    c-0.83-0.63-1.52-0.51-2.27,0.11c-5.87,4.95-11.79,9.86-17.62,14.87c-2.11,1.81-2,2.51,0.5,3.72c1.21,0.59,1.47,1.34,1.35,2.51    c-0.48,4.32-0.92,8.64-1.38,12.96c-0.68,6.43-1.36,12.86-2.06,19.28c-0.54,4.9-1.09,9.8-1.69,14.69    c-0.06,0.51-0.39,1.18-0.81,1.43c-2.48,1.52-5.06,2.88-7.54,4.4c-9.26,5.69-18.5,11.4-27.73,17.14c-0.87,0.54-1.6,0.66-2.48,0.11    c-6.57-4.1-13.13-8.21-19.72-12.27c-5.05-3.11-10.14-6.17-15.23-9.22c-0.78-0.47-1.12-1.07-1.22-1.9c-0.63-5.1-1.32-10.2-1.9-15.3    c-0.95-8.32-1.84-16.65-2.77-24.97c-0.45-4.06-0.9-8.11-1.4-12.17C488.81,423.17,489.05,422.38,490.13,421.8z"></path>
		<path class="st1" d="M319.03,415.94c20.21,0,40.42,0,60.62,0c0-0.01,0-0.02,0-0.03c13.9,0,27.79,0,41.69,0c6.79,0,13.58,0,20.37,0    c1.42,0,1.45-0.03,1.39-1.41c-0.01-0.21-0.01-0.42-0.04-0.64c-0.57-5.27-1.17-10.54-1.72-15.81c-0.43-4.06-0.83-8.12-1.19-12.18    c-0.12-1.3,0.19-1.48,1.31-0.85c8.74,4.83,17.33,9.87,24.66,16.76c0.78,0.74,1.31,0.7,2.16,0.15c4.89-3.17,9.82-6.28,14.74-9.42    c2.86-1.82,5.72-3.64,8.58-5.47c1.15-0.74,1.15-0.83,0.08-1.63c-0.85-0.63-1.73-1.23-2.58-1.86c-9.42-6.89-18.9-13.69-29.27-19.11    c-10.85-5.66-22.1-10.32-34.2-12.56c-4.06-0.75-8.17-1.24-12.26-1.89c-0.67-0.11-0.88,0.11-0.83,0.73    c0.06,0.63,0.09,1.27,0.15,1.9c0.5,4.85,1,9.7,1.52,14.55c0.69,6.38,1.4,12.75,2.1,19.12c0.25,2.27,0.53,4.53,0.73,6.8    c0.13,1.47,0.04,1.53-1.38,1.68c-0.79,0.08-1.59,0.12-2.38,0.12c-18.03,0.05-36.07,0.09-54.1,0.16    c-6.36,0.02-12.72,0.14-19.08,0.21c-1.55,0.02-1.64-0.05-1.81-1.53c-0.42-3.85-0.82-7.69-1.21-11.54    c-0.77-7.54-1.52-15.08-2.28-22.63c-0.03-0.26-0.1-0.52-0.15-0.78c-0.14-0.66-0.51-0.9-1.15-0.62c-0.68,0.29-1.36,0.59-2.04,0.88    c-6.49,2.75-12.95,5.54-19,9.22c-1.53,0.93-2.27,1.86-2.04,3.77c0.77,6.53,1.37,13.07,2.02,19.61c0.71,7.17,1.42,14.35,2.12,21.52    c0.15,1.54,1.04,2.54,2.55,2.71C317.76,415.96,318.4,415.94,319.03,415.94z"></path>
		<path class="st1" d="M342.8,328.25c6.86-0.71,13.73-1.36,20.62-1.32c5.88,0.04,11.77,0.34,17.62,0.83    c5.59,0.47,11.19,1.13,16.72,2.08c10.62,1.81,21.04,4.46,31.28,7.83c15.51,5.1,30.36,11.66,44.71,19.44    c11.91,6.46,23.12,14.01,34.34,21.55c8.81,5.92,17.15,12.48,25.35,19.21c3.36,2.76,6.67,5.57,9.94,8.43    c1.4,1.22,1.31,1.28,2.72-0.01c4.61-4.23,9.22-8.45,13.85-12.66c1.33-1.21,2.7-2.39,4.08-3.54c0.56-0.47,0.54-0.77-0.01-1.23    c-2.36-1.97-4.65-4.04-7.06-5.94c-5.12-4.04-10.34-7.95-15.46-11.99c-6.45-5.09-12.86-10.21-19.76-14.72    c-8.26-5.39-16.54-10.74-25.25-15.39c-11.14-5.96-22.53-11.35-34.36-15.81c-9.65-3.64-19.54-6.43-29.62-8.52    c-10.85-2.25-21.8-3.9-32.91-4.36c-10.03-0.41-20.06-0.55-30.02,0.59c-7.94,0.91-15.85,2.29-23.67,3.94    c-12.52,2.64-24.83,6.1-36.41,11.69c-3.9,1.88-9.52,4.14-12.91,7.73c1.15-0.19,2.07-0.32,2.98-0.5c5.3-1.08,10.57-2.29,15.89-3.25    C324.52,330.66,333.62,329.2,342.8,328.25z"></path>
		<path class="st1" d="M766.59,334.5c-0.65-0.61-1.29-1.28-2.05-1.72c-5.22-3.08-10.72-5.59-16.39-7.71    c-13.49-5.05-27.3-8.97-41.58-10.98c-6.55-0.92-13.15-1.75-19.75-2.07c-13.16-0.65-26.27,0.11-39.34,1.87    c-15.25,2.05-30.02,5.99-44.52,11c-7.42,2.56-14.6,5.73-21.66,9.17c-9.49,4.63-18.7,9.78-27.68,15.31    c-6.04,3.72-11.93,7.71-17.88,11.59c-1.49,0.98-1.48,1.02-0.17,2.04c6.42,5.04,12.84,10.08,19.25,15.14    c0.72,0.57,1.28,0.63,2.11,0.08c4.46-2.96,8.96-5.86,13.46-8.76c11.28-7.26,22.78-14.13,35.04-19.68    c18.26-8.27,36.95-15.16,56.68-19.04c9.12-1.79,18.3-3.06,27.57-3.53c15.04-0.76,30.01,0.15,44.85,2.61    c10.55,1.75,21,4.02,31.5,6.04c0.28,0.05,0.62-0.14,1.05-0.26C766.85,335.04,766.79,334.69,766.59,334.5z"></path>
		<path class="st0" d="M607.42,573.74c4.8,6.47,9.6,12.93,14.37,19.41c0.49,0.67,0.81,0.63,1.36,0.12c0.54-0.5,1.15-0.94,1.78-1.33    c9.52-5.96,19.04-11.91,28.57-17.85c1.96-1.22,3.95-2.41,6.05-3.69c-0.35-0.31-0.53-0.49-0.72-0.65    c-2.49-2.06-4.98-4.13-7.47-6.18c-3.8-3.14-7.59-6.28-11.41-9.4c-1.83-1.49-1.83-1.43-3.78-0.04c-2.16,1.53-4.33,3.06-6.56,4.47    c-5.69,3.6-11.42,7.11-17.11,10.7c-1.87,1.18-3.69,2.45-5.58,3.72C607.12,573.31,607.26,573.53,607.42,573.74z"></path>
		<path class="st0" d="M599,519.87c-1.42-1.2-1.65-1.26-3.19-0.28c-5.62,3.6-11.23,7.21-16.84,10.82c-1.34,0.86-1.37,0.9-0.46,2.17    c4.28,5.99,8.61,11.94,12.87,17.94c0.65,0.91,1.13,0.93,2.04,0.35c5.77-3.65,11.59-7.23,17.39-10.84c2.19-1.36,4.39-2.73,6.74-4.2    c-1.68-1.52-3.18-2.93-4.74-4.26C608.22,527.66,603.6,523.78,599,519.87z"></path>
		<path class="st1" d="M386.67,349.43c-0.11-0.98-0.46-1.42-1.51-1.25c-1.04,0.17-2.11,0.23-3.16,0.34    c-6.64,0.7-13.28,1.38-19.91,2.13c-2.12,0.24-2.12,0.31-2.09,2.42c0.64,5.95,1.29,11.9,1.9,17.85c0.09,0.85,0.39,1.01,1.21,0.96    c8.3-0.52,16.6-0.99,24.9-1.46c1.34-0.08,1.34-0.02,1.14-1.45c-0.39-2.83-0.78-5.67-1.13-8.51    C387.54,356.8,387.08,353.12,386.67,349.43z"></path>
	</g>
	<g>
		<g>
			<path class="st2" d="M136.15,813.44h6.93v12.16h-8.24c-2.68,0-5.12-0.4-7.34-1.21c-1.74,5.02-4.87,9.01-9.4,11.96     c-4.52,2.95-10,4.42-16.43,4.42c-8.44,0-15.02-2.68-19.75-8.04c-4.72-5.36-7.09-11.69-7.09-18.99c0-5.29,1.24-9.91,3.72-13.87     l12.06-2.51c-2.68,4.56-4.02,9.35-4.02,14.37c0,4.69,1.32,8.68,3.97,11.96c2.65,3.28,6.35,4.92,11.1,4.92     c4.69,0,8.31-1.19,10.85-3.57c2.55-2.38,3.82-5.64,3.82-9.8v-7.14v-1.31v-19.19l12.66-6.63v25.22c0,2.61,0.55,4.47,1.66,5.58     C131.78,812.88,133.6,813.44,136.15,813.44z M107.66,776.3c-1.17,1.24-2.76,1.86-4.77,1.86c-2.01,0-3.62-0.6-4.82-1.81     c-1.21-1.21-1.81-2.85-1.81-4.92c0-1.94,0.6-3.52,1.81-4.72c1.21-1.21,2.81-1.81,4.82-1.81c2.01,0,3.6,0.6,4.77,1.81     c1.17,1.21,1.76,2.78,1.76,4.72C109.42,773.44,108.83,775.07,107.66,776.3z"></path>
		</g>
		<g>
			<path class="st2" d="M173.43,779.27c6.23,0,11.15,2.13,14.77,6.38c3.62,4.26,5.43,9.83,5.43,16.73c0,6.97-1.76,12.58-5.28,16.83     c-3.52,4.26-8.26,6.38-14.22,6.38c-5.36,0-9.75-1.17-13.16-3.52c-3.22,2.35-7.1,3.52-11.66,3.52h-8.24v-12.16h7.03     c2.55,0,4.35-0.55,5.43-1.66c1.07-1.11,1.61-2.96,1.61-5.58v-8.34c0-5.69,1.66-10.22,4.97-13.57     C163.43,780.94,167.87,779.27,173.43,779.27z M173.73,813.44c4.96,0,7.44-3.82,7.44-11.46c0-3.35-0.67-6.01-2.01-7.99     c-1.34-1.98-3.25-2.97-5.73-2.97c-3.75,0-5.63,2.21-5.63,6.63v9.15v1.01c0,2.01,0.47,3.45,1.41,4.32     C170.15,813,171.65,813.44,173.73,813.44z"></path>
		</g>
		<g>
			<path class="st2" d="M246.39,767.51l12.56-6.73v43.92c0,6.1-1.79,11.1-5.38,15.02c-3.58,3.92-8.59,5.88-15.02,5.88h-18.29h-19.6     l6.33-12.16h13.26v-32.86l12.66-6.73v39.59h4.92c3.08,0,5.28-0.67,6.58-2.01c1.31-1.34,1.96-3.62,1.96-6.83V767.51z      M238.05,761.68l-3.12,5.83h-19.09l3.22-5.83h2.91c-0.94-1.87-1.26-3.68-0.95-5.43c0.3-1.74,1.12-3.22,2.46-4.42     c1.41-1.34,3.15-2.04,5.23-2.11c2.08-0.07,4.19,0.74,6.33,2.41v5.83c-1.54-1.41-3.1-2.19-4.67-2.36     c-1.58-0.17-2.6,0.12-3.07,0.85c-1.41,1.41-1.24,3.15,0.5,5.23H238.05z"></path>
		</g>
		<g>
			<path class="st2" d="M273.02,825.6v-58.08l12.66-6.73v64.82H273.02z"></path>
		</g>
		<g>
			<path class="st2" d="M351.71,843.78c-10.45,0-18.29-2.65-23.52-7.94c-5.23-5.29-7.84-11.66-7.84-19.09     c0-5.29,1.24-9.91,3.72-13.87l12.06-2.51c-2.68,4.56-4.02,9.35-4.02,14.37c0,4.89,1.57,8.93,4.72,12.11     c3.15,3.18,8.11,4.77,14.87,4.77c6.03,0,10.69-0.89,13.97-2.66c3.28-1.78,4.92-4.1,4.92-6.98c0-1.61-0.87-2.93-2.61-3.97     c-1.74-1.04-3.87-1.98-6.38-2.81c-2.51-0.84-5.02-1.86-7.54-3.07c-2.51-1.21-4.64-3.1-6.38-5.68c-1.74-2.58-2.61-5.78-2.61-9.6     c0-5.56,1.71-9.88,5.12-12.96c3.42-3.08,7.34-4.62,11.76-4.62c3.08,0,6.06,0.62,8.94,1.86c2.88,1.24,5.23,3,7.03,5.28v10.75     c-4.82-4.42-9.45-6.63-13.87-6.63c-2.01,0-3.69,0.57-5.02,1.71c-1.34,1.14-2.01,2.71-2.01,4.72c0,2.41,0.9,4.36,2.71,5.83     c1.81,1.47,3.99,2.63,6.53,3.47c2.54,0.84,5.11,1.74,7.69,2.71c2.58,0.97,4.76,2.55,6.53,4.72c1.77,2.18,2.66,4.97,2.66,8.39     c0,6.43-2.85,11.66-8.54,15.68C368.92,841.77,361.29,843.78,351.71,843.78z"></path>
		</g>
		<g>
			<path class="st2" d="M452,813.44v12.16h-11.66c-1.54,5.02-4.17,8.81-7.89,11.36c-3.72,2.55-8.02,3.82-12.91,3.82     c-4.16,0-8.28-1.21-12.36-3.62V826.2c4.09,2.28,7.9,3.42,11.46,3.42c3.75,0,6.56-1.47,8.44-4.42l-3.12-0.3     c-6.5-0.67-11.57-3.06-15.22-7.19c-3.65-4.12-5.48-9.23-5.48-15.33c0-6.9,1.79-12.48,5.38-16.73c3.58-4.25,8.49-6.38,14.72-6.38     c5.56,0,10,1.68,13.32,5.02c3.32,3.35,4.97,7.87,4.97,13.57v11.16v4.42H452z M415.72,801.98c0,6.5,2.95,10.12,8.84,10.85     c1.81,0.27,3.32,0.44,4.52,0.5v-8.74v-6.93c0-4.42-1.91-6.63-5.73-6.63c-2.41,0-4.29,0.99-5.63,2.97     C416.39,795.97,415.72,798.63,415.72,801.98z"></path>
		</g>
		<g>
			<path class="st2" d="M449.99,825.6v-12.16h13.67v12.16H449.99z"></path>
		</g>
		<g>
			<path class="st2" d="M461.64,825.6v-12.16h13.67v12.16H461.64z"></path>
		</g>
		<g>
			<path class="st2" d="M473.3,825.6v-12.16h13.67v12.16H473.3z"></path>
		</g>
		<g>
			<path class="st2" d="M484.96,825.6v-12.16h14.07c-2.01-2.95-3.01-6.63-3.01-11.05c0-6.9,1.81-12.48,5.43-16.73     c3.62-4.25,8.54-6.38,14.77-6.38c5.56,0,10,1.68,13.32,5.02c3.32,3.35,4.97,7.87,4.97,13.57v9.04     c-0.07,5.36-1.66,9.82-4.77,13.37c-3.12,3.55-7.69,5.33-13.72,5.33H484.96z M513.35,770.27c-1.17,1.24-2.76,1.86-4.77,1.86     s-3.62-0.6-4.82-1.81c-1.21-1.21-1.81-2.85-1.81-4.92c0-1.94,0.6-3.52,1.81-4.72c1.21-1.21,2.81-1.81,4.82-1.81     s3.6,0.6,4.77,1.81c1.17,1.21,1.76,2.78,1.76,4.72C515.11,767.41,514.52,769.04,513.35,770.27z M515.91,813.44     c3.95,0,5.93-2.14,5.93-6.43v-9.35c0-4.42-1.88-6.63-5.63-6.63c-2.48,0-4.39,0.99-5.73,2.97c-1.34,1.98-2.01,4.64-2.01,7.99     c0,3.55,0.64,6.35,1.91,8.39C511.66,812.42,513.5,813.44,515.91,813.44z M528.72,770.27c-1.17,1.24-2.76,1.86-4.77,1.86     c-2.01,0-3.62-0.6-4.82-1.81c-1.21-1.21-1.81-2.85-1.81-4.92c0-1.94,0.62-3.52,1.86-4.72c1.24-1.21,2.83-1.81,4.77-1.81     c2.01,0,3.6,0.6,4.77,1.81c1.17,1.21,1.76,2.78,1.76,4.72C530.48,767.41,529.89,769.04,528.72,770.27z"></path>
		</g>
		<g>
			<path class="st2" d="M592.99,843.78c-10.45,0-18.29-2.65-23.52-7.94c-5.23-5.29-7.84-11.66-7.84-19.09     c0-5.29,1.24-9.91,3.72-13.87l12.06-2.51c-2.68,4.56-4.02,9.35-4.02,14.37c0,5.23,1.57,9.46,4.72,12.71     c3.15,3.25,8.11,4.87,14.87,4.87c9.04,0,14.87-2.24,17.49-6.73h-9.04l6.33-12.16h16.78v12.16h-0.4     c-1.07,5.49-4.36,9.9-9.85,13.22C608.8,842.13,601.7,843.78,592.99,843.78z"></path>
		</g>
		<g>
			<path class="st2" d="M667.35,813.44h13.87v12.16h-21.81c-3.28,0-5.96-0.23-8.04-0.7c-2.08,0.47-4.76,0.7-8.04,0.7h-21.91v-12.16     h13.87c-2.55-4.09-3.82-8.24-3.82-12.46c0-6.23,1.77-11.41,5.33-15.53c3.55-4.12,8.41-6.18,14.57-6.18c6.16,0,11,2.06,14.52,6.18     c3.52,4.12,5.28,9.29,5.28,15.53C671.17,805.2,669.9,809.35,667.35,813.44z M651.38,791.03c-2.55,0-4.46,0.84-5.73,2.51     c-1.27,1.67-1.91,3.89-1.91,6.63c0,2.41,0.67,4.77,2.01,7.08c1.34,2.31,3.22,4,5.63,5.07c2.34-1.14,4.2-2.85,5.58-5.13     c1.37-2.28,2.06-4.59,2.06-6.93c0-2.75-0.65-4.98-1.96-6.68C655.75,791.88,653.85,791.03,651.38,791.03z M651.27,772.13     c-1.94,0-3.53-0.6-4.77-1.81c-1.24-1.21-1.86-2.85-1.86-4.92c0-2.01,0.6-3.6,1.81-4.77c1.21-1.17,2.81-1.76,4.82-1.76     s3.6,0.6,4.77,1.81c1.17,1.21,1.76,2.78,1.76,4.72c0,2.01-0.59,3.63-1.76,4.87C654.88,771.51,653.28,772.13,651.27,772.13z"></path>
		</g>
		<g>
			<path class="st2" d="M679.21,825.6v-12.16h8.64c2.55,0,4.37-0.55,5.48-1.66c1.11-1.11,1.66-2.96,1.66-5.58v-13.26l12.66-6.63     v19.9c0,2.61,0.54,4.47,1.61,5.58c1.07,1.11,2.88,1.66,5.43,1.66h6.83c2.55,0,4.35-0.55,5.43-1.66c1.07-1.11,1.61-2.96,1.61-5.58     v-15.88l12.66-6.73v22.61c0,2.61,0.55,4.47,1.66,5.58c1.11,1.11,2.93,1.66,5.48,1.66h6.83c2.55,0,4.35-0.55,5.43-1.66     c1.07-1.11,1.61-2.96,1.61-5.58v-18.59l12.66-6.63v23.62c0,3.22,0.65,5.49,1.96,6.83c1.31,1.34,3.5,2.01,6.58,2.01h7.24v12.16     h-7.94c-5.63,0-10.12-1.61-13.47-4.82c-3.15,3.15-7.24,4.76-12.26,4.82h-9.95c-4.96,0-9.01-1.47-12.16-4.42     c-2.88,2.88-6.7,4.36-11.46,4.42h-9.95c-4.96,0-9.01-1.47-12.16-4.42c-3.15,2.95-7.2,4.42-12.16,4.42H679.21z M731.42,770.27     c-1.17,1.24-2.76,1.86-4.77,1.86c-2.01,0-3.62-0.6-4.82-1.81c-1.21-1.21-1.81-2.85-1.81-4.92c0-2.01,0.6-3.6,1.81-4.77     c1.21-1.17,2.81-1.76,4.82-1.76c2.01,0,3.6,0.6,4.77,1.81c1.17,1.21,1.76,2.78,1.76,4.72     C733.18,767.41,732.59,769.04,731.42,770.27z M738.65,755.7c-1.04,1.1-2.5,1.66-4.37,1.66c-1.88,0-3.35-0.55-4.42-1.66     c-1.07-1.11-1.61-2.6-1.61-4.47c0-1.81,0.54-3.25,1.61-4.32c1.07-1.07,2.54-1.61,4.42-1.61c1.87,0,3.33,0.54,4.37,1.61     c1.04,1.07,1.56,2.51,1.56,4.32C740.21,753.11,739.69,754.6,738.65,755.7z M746.89,770.27c-1.17,1.24-2.76,1.86-4.77,1.86     s-3.62-0.6-4.82-1.81c-1.21-1.21-1.81-2.85-1.81-4.92c0-2.01,0.6-3.6,1.81-4.77c1.21-1.17,2.81-1.76,4.82-1.76s3.6,0.6,4.77,1.81     c1.17,1.21,1.76,2.78,1.76,4.72C748.65,767.41,748.07,769.04,746.89,770.27z"></path>
		</g>
		<g>
			<path class="st2" d="M822.52,813.44h6.93v12.16h-8.24c-4.89,0-8.94-1.31-12.16-3.92c-3.22,2.61-7.27,3.92-12.16,3.92h-8.24     v-12.16h7.03c2.34,0,4.07-0.47,5.18-1.41c1.11-0.94,1.72-2.51,1.86-4.72v-0.5v-19.19l12.66-6.63v25.22     c0,2.61,0.55,4.47,1.66,5.58C818.14,812.88,819.97,813.44,822.52,813.44z M800.96,770.27c-1.17,1.24-2.76,1.86-4.77,1.86     c-2.01,0-3.62-0.6-4.82-1.81c-1.21-1.21-1.81-2.85-1.81-4.92c0-1.94,0.6-3.52,1.81-4.72c1.21-1.21,2.81-1.81,4.82-1.81     c2.01,0,3.6,0.6,4.77,1.81c1.17,1.21,1.76,2.78,1.76,4.72C802.72,767.41,802.13,769.04,800.96,770.27z M816.33,770.27     c-1.17,1.24-2.76,1.86-4.77,1.86c-2.01,0-3.62-0.6-4.82-1.81c-1.21-1.21-1.81-2.85-1.81-4.92c0-1.94,0.62-3.52,1.86-4.72     c1.24-1.21,2.83-1.81,4.77-1.81c2.01,0,3.6,0.6,4.77,1.81c1.17,1.21,1.76,2.78,1.76,4.72     C818.09,767.41,817.51,769.04,816.33,770.27z"></path>
		</g>
		<g>
			<path class="st2" d="M826.84,825.6v-12.16h8.64c2.55,0,4.37-0.55,5.48-1.66c1.11-1.11,1.66-2.96,1.66-5.58v-13.26l12.66-6.63     v19.9c0,2.61,0.54,4.47,1.61,5.58c1.07,1.11,2.88,1.66,5.43,1.66h6.83c2.55,0,4.35-0.55,5.43-1.66c1.07-1.11,1.61-2.96,1.61-5.58     v-15.88l12.66-6.73v22.61c0,2.61,0.55,4.47,1.66,5.58c1.11,1.11,2.93,1.66,5.48,1.66h6.83c2.55,0,4.35-0.55,5.43-1.66     c1.07-1.11,1.61-2.96,1.61-5.58v-18.59l12.66-6.63v23.62c0,3.22,0.65,5.49,1.96,6.83c1.31,1.34,3.5,2.01,6.58,2.01h7.24v12.16     h-7.94c-5.63,0-10.12-1.61-13.47-4.82c-3.15,3.15-7.24,4.76-12.26,4.82h-9.95c-4.96,0-9.01-1.47-12.16-4.42     c-2.88,2.88-6.7,4.36-11.46,4.42h-9.95c-4.96,0-9.01-1.47-12.16-4.42c-3.15,2.95-7.2,4.42-12.16,4.42H826.84z"></path>
		</g>
		<g>
			<path class="st2" d="M968.63,779.27c6.23,0,11.16,2.13,14.77,6.38c3.62,4.26,5.43,9.83,5.43,16.73c0,6.97-1.76,12.58-5.28,16.83     c-3.52,4.26-8.26,6.38-14.22,6.38c-5.36,0-9.75-1.17-13.17-3.52c-3.22,2.35-7.1,3.52-11.66,3.52h-8.24v-12.16h7.03     c2.55,0,4.35-0.55,5.43-1.66c1.07-1.11,1.61-2.96,1.61-5.58v-8.34c0-5.69,1.66-10.22,4.98-13.57     C958.63,780.94,963.07,779.27,968.63,779.27z M968.93,813.44c4.96,0,7.44-3.82,7.44-11.46c0-3.35-0.67-6.01-2.01-7.99     c-1.34-1.98-3.25-2.97-5.73-2.97c-3.75,0-5.63,2.21-5.63,6.63v9.15v1.01c0,2.01,0.47,3.45,1.41,4.32     C965.35,813,966.86,813.44,968.93,813.44z"></path>
		</g>
	</g>
	<g>
		<g>
			<path class="st2" d="M79.4,935.99l5.93-6.05c3.35,3.27,7.07,4.91,11.15,4.91c2.17,0,3.9-0.47,5.19-1.4     c1.3-0.93,1.94-2.21,1.94-3.82c0-1.19-0.42-2.21-1.27-3.06c-0.85-0.85-1.97-1.56-3.35-2.13c-1.38-0.57-2.89-1.12-4.52-1.66     c-1.64-0.53-3.28-1.17-4.94-1.91c-1.66-0.74-3.18-1.6-4.56-2.58c-1.38-0.98-2.5-2.3-3.35-3.98c-0.85-1.68-1.27-3.62-1.27-5.83     c0-3.91,1.41-7.08,4.24-9.53c2.82-2.44,6.62-3.66,11.37-3.66c2.85,0,5.67,0.62,8.47,1.85c2.8,1.23,5.2,3.12,7.2,5.67l-6.63,5.29     c-0.98-1.27-2.27-2.28-3.89-3.03c-1.61-0.74-3.23-1.14-4.84-1.18c-2,0-3.61,0.43-4.84,1.27c-1.23,0.85-1.85,1.91-1.85,3.19     c0,1.19,0.57,2.22,1.72,3.09c1.15,0.87,2.58,1.56,4.3,2.07c1.72,0.51,3.59,1.16,5.61,1.94c2.02,0.79,3.89,1.66,5.61,2.61     c1.72,0.96,3.15,2.38,4.3,4.27c1.15,1.89,1.72,4.13,1.72,6.72c0,4.33-1.49,7.83-4.46,10.48c-2.97,2.66-6.88,3.98-11.72,3.98     c-0.09,0-0.17,0-0.26,0C89.53,943.51,83.86,941,79.4,935.99z"></path>
		</g>
		<g>
			<path class="st2" d="M119.79,896.1h29.37v8.73h-19.88v9.68h18.6v8.6h-18.6v10.32h20.52v9.18h-30.01V896.1z"></path>
		</g>
		<g>
			<path class="st2" d="M162.16,902.35c4.67-4.71,10.34-7.07,17.01-7.07c3.78,0,7.32,0.82,10.61,2.45c3.29,1.64,6.06,3.88,8.31,6.72     l-7.9,5.8c-2.93-3.48-6.61-5.23-11.02-5.23c-3.91,0-7.27,1.4-10.1,4.2c-2.83,2.8-4.24,6.18-4.24,10.13c0,3.99,1.4,7.39,4.21,10.2     c2.8,2.8,6.18,4.2,10.13,4.2c4.5,0,8.16-1.74,10.96-5.23l8.47,5.1c-2.25,3.1-5.07,5.53-8.44,7.29     c-3.38,1.76-7.04,2.64-10.99,2.64c-6.67,0-12.35-2.37-17.04-7.1c-4.69-4.74-7.04-10.44-7.04-17.11     C155.09,912.73,157.45,907.06,162.16,902.35z"></path>
		</g>
		<g>
			<path class="st2" d="M213.9,896.1v28.8c0,2.85,0.81,5.07,2.42,6.66c1.61,1.59,3.7,2.39,6.24,2.39c2.55,0,4.66-0.8,6.34-2.39     c1.68-1.59,2.52-3.81,2.52-6.66v-28.8h9.56v28.86c0,5.52-1.74,9.98-5.23,13.38c-3.48,3.44-7.86,5.16-13.13,5.16     c-5.27,0-9.63-1.71-13.09-5.13c-3.46-3.42-5.19-7.89-5.19-13.41V896.1H213.9z"></path>
		</g>
		<g>
			<path class="st2" d="M267.04,896.1c4.93,0,8.9,1.46,11.91,4.37c3.02,2.91,4.52,6.51,4.52,10.8c0,3.06-0.82,5.8-2.45,8.22     c-1.64,2.42-3.85,4.14-6.66,5.16l10,17.97h-10.9l-8.6-16.06h-6.18v16.06h-9.56V896.1H267.04z M266.78,917.19     c2.12,0,3.8-0.56,5.03-1.69c1.23-1.13,1.85-2.54,1.85-4.24c0-1.66-0.63-3.05-1.88-4.17c-1.25-1.12-2.92-1.69-5-1.69h-8.09v11.79     H266.78z"></path>
		</g>
		<g>
			<path class="st2" d="M299.28,942.62h-9.56V896.1h9.56V942.62z"></path>
		</g>
		<g>
			<path class="st2" d="M304.76,896.1h35.62v9.18h-13.06v37.34h-9.49v-37.34h-13.06V896.1z"></path>
		</g>
		<g>
			<path class="st2" d="M352.73,896.1l9.56,16.82l9.49-16.82h10.77l-15.55,27.4v19.11h-9.56V923.5l-15.48-27.4H352.73z"></path>
		</g>
		<g>
			<path class="st2" d="M404.54,896.1h30.65v9.18h-21.15v9.68h19.88v9.17h-19.88v18.48h-9.49V896.1z"></path>
		</g>
		<g>
			<path class="st2" d="M440.02,919.36c0-6.63,2.35-12.3,7.04-17.01c4.69-4.71,10.37-7.07,17.04-7.07c6.67,0,12.35,2.36,17.04,7.07     c4.69,4.71,7.04,10.39,7.04,17.01c0,6.67-2.34,12.36-7.01,17.08c-4.71,4.76-10.41,7.14-17.08,7.14c-6.67,0-12.35-2.37-17.04-7.1     C442.37,931.73,440.02,926.03,440.02,919.36z M453.98,929.55c2.8,2.8,6.18,4.2,10.13,4.2c3.95,0,7.32-1.4,10.1-4.2     c2.78-2.8,4.17-6.2,4.17-10.2c0-3.95-1.4-7.33-4.21-10.13c-2.8-2.8-6.16-4.2-10.07-4.2c-3.91,0-7.27,1.4-10.1,4.2     c-2.83,2.8-4.24,6.18-4.24,10.13C449.77,923.35,451.18,926.75,453.98,929.55z"></path>
		</g>
		<g>
			<path class="st2" d="M513.11,896.1c4.93,0,8.9,1.46,11.91,4.37c3.02,2.91,4.52,6.51,4.52,10.8c0,3.06-0.82,5.8-2.45,8.22     c-1.64,2.42-3.85,4.14-6.66,5.16l10,17.97h-10.9l-8.6-16.06h-6.18v16.06h-9.56V896.1H513.11z M512.85,917.19     c2.12,0,3.8-0.56,5.03-1.69c1.23-1.13,1.85-2.54,1.85-4.24c0-1.66-0.63-3.05-1.88-4.17c-1.25-1.12-2.92-1.69-5-1.69h-8.09v11.79     H512.85z"></path>
		</g>
		<g>
			<path class="st2" d="M541.14,902.35c4.67-4.71,10.34-7.07,17.01-7.07c3.78,0,7.32,0.82,10.61,2.45c3.29,1.64,6.06,3.88,8.31,6.72     l-7.9,5.8c-2.93-3.48-6.61-5.23-11.02-5.23c-3.91,0-7.27,1.4-10.1,4.2c-2.83,2.8-4.24,6.18-4.24,10.13c0,3.99,1.4,7.39,4.21,10.2     c2.8,2.8,6.18,4.2,10.13,4.2c4.5,0,8.16-1.74,10.96-5.23l8.47,5.1c-2.25,3.1-5.07,5.53-8.44,7.29     c-3.38,1.76-7.04,2.64-10.99,2.64c-6.67,0-12.35-2.37-17.04-7.1c-4.69-4.74-7.04-10.44-7.04-17.11     C534.07,912.73,536.43,907.06,541.14,902.35z"></path>
		</g>
		<g>
			<path class="st2" d="M583.96,896.1h29.37v8.73h-19.88v9.68h18.6v8.6h-18.6v10.32h20.52v9.18h-30.01V896.1z"></path>
		</g>
		<g>
			<path class="st2" d="M619.07,935.99l5.93-6.05c3.35,3.27,7.07,4.91,11.15,4.91c2.17,0,3.9-0.47,5.19-1.4     c1.3-0.93,1.94-2.21,1.94-3.82c0-1.19-0.42-2.21-1.27-3.06c-0.85-0.85-1.97-1.56-3.35-2.13c-1.38-0.57-2.89-1.12-4.52-1.66     c-1.64-0.53-3.28-1.17-4.94-1.91c-1.66-0.74-3.18-1.6-4.56-2.58c-1.38-0.98-2.5-2.3-3.35-3.98c-0.85-1.68-1.27-3.62-1.27-5.83     c0-3.91,1.41-7.08,4.24-9.53c2.82-2.44,6.62-3.66,11.37-3.66c2.85,0,5.67,0.62,8.47,1.85c2.8,1.23,5.2,3.12,7.2,5.67l-6.63,5.29     c-0.98-1.27-2.27-2.28-3.89-3.03c-1.61-0.74-3.23-1.14-4.84-1.18c-2,0-3.61,0.43-4.84,1.27c-1.23,0.85-1.85,1.91-1.85,3.19     c0,1.19,0.57,2.22,1.72,3.09c1.15,0.87,2.58,1.56,4.3,2.07c1.72,0.51,3.59,1.16,5.61,1.94c2.02,0.79,3.89,1.66,5.61,2.61     c1.72,0.96,3.15,2.38,4.3,4.27c1.15,1.89,1.72,4.13,1.72,6.72c0,4.33-1.49,7.83-4.46,10.48c-2.97,2.66-6.88,3.98-11.72,3.98     c-0.09,0-0.17,0-0.26,0C629.2,943.51,623.53,941,619.07,935.99z"></path>
		</g>
		<g>
			<path class="st2" d="M676.54,896.1h9.56v18.73H704V896.1h9.56v46.51H704v-18.29h-17.9v18.29h-9.56V896.1z"></path>
		</g>
		<g>
			<path class="st2" d="M720.63,919.36c0-6.63,2.35-12.3,7.04-17.01c4.69-4.71,10.37-7.07,17.04-7.07c6.67,0,12.35,2.36,17.04,7.07     c4.69,4.71,7.04,10.39,7.04,17.01c0,6.67-2.34,12.36-7.01,17.08c-4.71,4.76-10.41,7.14-17.08,7.14c-6.67,0-12.35-2.37-17.04-7.1     C722.97,931.73,720.63,926.03,720.63,919.36z M734.58,929.55c2.8,2.8,6.18,4.2,10.13,4.2c3.95,0,7.32-1.4,10.1-4.2     c2.78-2.8,4.17-6.2,4.17-10.2c0-3.95-1.4-7.33-4.21-10.13c-2.8-2.8-6.16-4.2-10.07-4.2c-3.91,0-7.27,1.4-10.1,4.2     c-2.83,2.8-4.24,6.18-4.24,10.13C730.38,923.35,731.78,926.75,734.58,929.55z"></path>
		</g>
		<g>
			<path class="st2" d="M773.89,935.99l5.93-6.05c3.35,3.27,7.07,4.91,11.15,4.91c2.17,0,3.9-0.47,5.19-1.4     c1.3-0.93,1.94-2.21,1.94-3.82c0-1.19-0.42-2.21-1.27-3.06c-0.85-0.85-1.97-1.56-3.35-2.13c-1.38-0.57-2.89-1.12-4.52-1.66     c-1.64-0.53-3.28-1.17-4.94-1.91c-1.66-0.74-3.18-1.6-4.56-2.58c-1.38-0.98-2.5-2.3-3.35-3.98c-0.85-1.68-1.27-3.62-1.27-5.83     c0-3.91,1.41-7.08,4.24-9.53c2.82-2.44,6.62-3.66,11.37-3.66c2.85,0,5.67,0.62,8.47,1.85c2.8,1.23,5.2,3.12,7.2,5.67l-6.63,5.29     c-0.98-1.27-2.27-2.28-3.89-3.03c-1.61-0.74-3.23-1.14-4.84-1.18c-2,0-3.61,0.43-4.84,1.27c-1.23,0.85-1.85,1.91-1.85,3.19     c0,1.19,0.57,2.22,1.72,3.09c1.15,0.87,2.58,1.56,4.3,2.07c1.72,0.51,3.59,1.16,5.61,1.94c2.02,0.79,3.89,1.66,5.61,2.61     c1.72,0.96,3.15,2.38,4.3,4.27c1.15,1.89,1.72,4.13,1.72,6.72c0,4.33-1.49,7.83-4.46,10.48c-2.97,2.66-6.88,3.98-11.72,3.98     c-0.09,0-0.17,0-0.26,0C784.02,943.51,778.35,941,773.89,935.99z"></path>
		</g>
		<g>
			<path class="st2" d="M832.19,896.1c4.93,0,8.9,1.46,11.91,4.37c3.02,2.91,4.52,6.51,4.52,10.8c0,4.33-1.51,7.96-4.52,10.9     c-3.02,2.93-6.99,4.4-11.91,4.4h-8.35v16.06h-9.56V896.1H832.19z M831.94,917.19c2.12,0,3.8-0.56,5.03-1.69     c1.23-1.13,1.85-2.54,1.85-4.24c0-1.66-0.63-3.05-1.88-4.17c-1.25-1.12-2.92-1.69-5-1.69h-8.09v11.79H831.94z"></path>
		</g>
		<g>
			<path class="st2" d="M864.18,942.62h-9.56V896.1h9.56V942.62z"></path>
		</g>
		<g>
			<path class="st2" d="M869.66,896.1h35.62v9.18h-13.06v37.34h-9.49v-37.34h-13.06V896.1z"></path>
		</g>
		<g>
			<path class="st2" d="M922.67,896.1h10.26l15.99,46.51h-10.45l-3.06-9.49h-15.1l-3.12,9.49h-10.51L922.67,896.1z M932.74,924.27     l-4.91-15.16l-4.91,15.16H932.74z"></path>
		</g>
		<g>
			<path class="st2" d="M984.28,942.62h-30.65V896.1h9.56v36.96h21.09V942.62z"></path>
		</g>
	</g>
	<g>
		<rect x="500" y="866.12" class="st1" width="907.79" height="3.85"></rect>
	</g>
</g>
</svg>
